<svg viewBox="0 0 120 120" xmlns="http://www.w3.org/2000/svg">
  <defs>
    <radialGradient id="detach-01-body" cx="42%" cy="24%" r="78%" fx="42%" fy="24%">
      <stop offset="0%" stop-color="#ffe6f0"/>
      <stop offset="28%" stop-color="#ffb9dc"/>
      <stop offset="72%" stop-color="#ff6fb4"/>
      <stop offset="100%" stop-color="#e11f85"/>
    </radialGradient>
    <radialGradient id="detach-01-spec" cx="42%" cy="20%" r="46%">
      <stop offset="0%" stop-color="rgba(255,255,255,0.74)"/>
      <stop offset="64%" stop-color="rgba(255,255,255,0.10)"/>
      <stop offset="100%" stop-color="rgba(255,255,255,0)"/>
    </radialGradient>
    <filter id="detach-01-blush" x="-50%" y="-50%" width="200%" height="200%">
      <feGaussianBlur stdDeviation="2"/>
    </filter>
  </defs>
  <g>
    <path d="
      M 54 78
      C 56 85 58 91 60 97
      C 62 91 64 85 66 78 Z
    " fill="#ff6fb4" opacity="0.92"/>
    <path d="
      M 24 42
      C 24 10 38 0 60 0
      C 82 0 96 10 96 42
      C 96 68 84 80 60 82
      C 36 80 24 68 24 42 Z
    " fill="url(#detach-01-body)"/>
    <path d="
      M 24 42
      C 24 10 38 0 60 0
      C 82 0 96 10 96 42
      C 96 68 84 80 60 82
      C 36 80 24 68 24 42 Z
    " fill="url(#detach-01-spec)"/>
    <ellipse cx="40" cy="49" rx="6" ry="3.8" fill="rgba(255,90,150,0.36)" filter="url(#detach-01-blush)"/>
    <ellipse cx="80" cy="49" rx="6" ry="3.8" fill="rgba(255,90,150,0.36)" filter="url(#detach-01-blush)"/>
    <circle cx="49" cy="37" r="5.2" fill="#1a1230"/>
    <circle cx="50" cy="35.2" r="1.7" fill="#fff"/>
    <circle cx="71" cy="35" r="5.2" fill="#1a1230"/>
    <circle cx="72" cy="33.2" r="1.7" fill="#fff"/>
    <path d="M 54 48 Q 60 54 66 48" stroke="#c2185b" stroke-width="2" fill="none" stroke-linecap="round"/>
  </g>
</svg>
